<?xml version="1.0" encoding="utf-8"?>
<!-- Generator: Adobe Illustrator 24.0.1, SVG Export Plug-In . SVG Version: 6.00 Build 0)  -->
<svg version="1.1" id="Layer_1" xmlns="http://www.w3.org/2000/svg" xmlns:xlink="http://www.w3.org/1999/xlink" x="0px" y="0px"
	 viewBox="0 0 300 250" style="enable-background:new 0 0 300 250;" xml:space="preserve">
<style type="text/css">
	.st0{fill:#E2E8EC;}
	.st1{fill:#AA1B59;}
	.st2{fill:#0A2240;}
</style>
<path id="path-1_1_" class="st0" d="M38.3,250.1C14.5,223.5,0,188.4,0,150C0,67.2,67.2,0,150,0s150,67.2,150,150
	c0,38.4-14.5,73.5-38.3,100.1l-15.4-14.3C266.7,213,279,182.9,279,150c0-71.2-57.8-129-129-129S21,78.8,21,150
	c0,32.9,12.3,63,32.6,85.7L38.3,250.1L38.3,250.1z"/>
<path id="path-1_2_" class="st1" d="M291.9,198.8c-6.6,19.1-16.9,36.5-30.1,51.2l-15.4-14.3c11.4-12.7,20.2-27.8,25.8-44.3
	C283.1,195.9,283.1,195.9,291.9,198.8L291.9,198.8z"/>
<path id="path-1_3_" class="st2" d="M27.8,191.5c5.6,16.5,14.5,31.5,25.8,44.3l-15.4,14.3C25,235.3,14.7,217.9,8.1,198.8
	C16.9,195.9,16.9,195.9,27.8,191.5z"/>
</svg>
