<svg xmlns="http://www.w3.org/2000/svg" xmlns:xlink="http://www.w3.org/1999/xlink" viewBox="0 0 45.03 52.8"><defs><linearGradient id="linear-gradient" x1="-422.68" y1="181.49" x2="-422.07" y2="182.21" gradientTransform="translate(19054.66 -9584.9) scale(45.06 52.82)" gradientUnits="userSpaceOnUse"><stop offset="0.02" stop-color="#005ca4"/><stop offset="0.94" stop-color="#002445"/></linearGradient><linearGradient id="linear-gradient-2" x1="-420.97" y1="183.34" x2="-420.33" y2="183.98" gradientTransform="translate(16068.71 -8366.49) scale(38.15 45.67)" gradientUnits="userSpaceOnUse"><stop offset="0.01" stop-color="#7bbbe8"/><stop offset="0.11" stop-color="#78b7e5"/><stop offset="0.22" stop-color="#6faadc"/><stop offset="0.32" stop-color="#6095cc"/><stop offset="0.43" stop-color="#4c78b7"/><stop offset="0.44" stop-color="#4a76b5"/><stop offset="0.48" stop-color="#3e72b2"/><stop offset="0.56" stop-color="#1e67ab"/><stop offset="0.62" stop-color="#005ca4"/><stop offset="0.79" stop-color="#004176"/><stop offset="0.99" stop-color="#002445"/></linearGradient><linearGradient id="linear-gradient-3" x1="-361.53" y1="220.43" x2="-360.53" y2="220.43" gradientTransform="translate(2234.73 -2674.82) scale(6.09 12.29)" gradientUnits="userSpaceOnUse"><stop offset="0" stop-color="#fff"/><stop offset="0.02" stop-color="#fdfdfd"/><stop offset="0.42" stop-color="#dfdfdf"/><stop offset="0.76" stop-color="#cdcdcd"/><stop offset="1" stop-color="#c6c6c6"/></linearGradient><linearGradient id="linear-gradient-4" x1="-415.3" y1="466.68" x2="-414.3" y2="466.68" gradientTransform="translate(10460.63 -962.35) scale(25.16 2.08)" gradientUnits="userSpaceOnUse"><stop offset="0" stop-color="#c6c6c6"/><stop offset="0.24" stop-color="#cdcdcd"/><stop offset="0.58" stop-color="#dfdfdf"/><stop offset="0.98" stop-color="#fdfdfd"/><stop offset="1" stop-color="#fff"/></linearGradient><linearGradient id="linear-gradient-5" x1="-268.45" y1="351.09" x2="-212.75" y2="351.09" gradientTransform="translate(10424.15 -1182.35) scale(25.07 3.41)" xlink:href="#linear-gradient-4"/><linearGradient id="linear-gradient-6" x1="-231.77" y1="349" x2="-199.41" y2="349" gradientTransform="translate(5892.55 -1174.25) scale(14.57 3.45)" xlink:href="#linear-gradient-4"/><linearGradient id="linear-gradient-7" x1="163.7" y1="226.13" x2="166.18" y2="226.13" gradientTransform="translate(78.62 -2475.82) scale(1.09 11.03)" xlink:href="#linear-gradient-4"/><linearGradient id="linear-gradient-8" x1="-363.32" y1="294.82" x2="-362.32" y2="294.82" gradientTransform="translate(2299.85 -1414.48) scale(6.25 4.95)" gradientUnits="userSpaceOnUse"><stop offset="0" stop-color="#c6c6c6"/><stop offset="0.09" stop-color="#d8d8d8"/><stop offset="0.22" stop-color="#eee"/><stop offset="0.34" stop-color="#fbfbfb"/><stop offset="0.46" stop-color="#fff"/></linearGradient><linearGradient id="linear-gradient-9" x1="-231.56" y1="200.12" x2="-207.75" y2="200.12" gradientTransform="translate(4222.67 -4096.78) scale(10.72 20.65)" xlink:href="#linear-gradient-4"/><linearGradient id="linear-gradient-10" x1="-266.95" y1="192.84" x2="-236.07" y2="192.84" gradientTransform="translate(5587.46 -5235.82) scale(13.9 27.31)" xlink:href="#linear-gradient-4"/><linearGradient id="linear-gradient-11" x1="-161.34" y1="481.46" x2="-152.02" y2="481.46" gradientTransform="translate(1405.21 -904.7) scale(4.2 1.98)" xlink:href="#linear-gradient-4"/><linearGradient id="linear-gradient-12" x1="-284.99" y1="184.22" x2="-241.12" y2="184.22" gradientTransform="translate(8111.82 -8118.34) scale(19.75 44.22)" xlink:href="#linear-gradient-4"/><linearGradient id="linear-gradient-13" x1="175.52" y1="604.03" x2="175.52" y2="598.91" gradientTransform="translate(-87.35 -1000.97) scale(0.71 2.31)" xlink:href="#linear-gradient-3"/><linearGradient id="linear-gradient-14" x1="-219.17" y1="265.59" x2="-206.77" y2="265.59" gradientTransform="translate(1982.5 -1705.87) scale(5.56 6.46)" xlink:href="#linear-gradient-4"/><linearGradient id="linear-gradient-15" x1="-420.98" y1="183.21" x2="-420.38" y2="183.93" gradientTransform="translate(16138.48 -8422.16) scale(38.31 45.99)" gradientUnits="userSpaceOnUse"><stop offset="0.54" stop-color="#fff"/><stop offset="0.66" stop-color="#fbfbfb"/><stop offset="0.78" stop-color="#eee"/><stop offset="0.91" stop-color="#d8d8d8"/><stop offset="1" stop-color="#c6c6c6"/></linearGradient></defs><title>Asset 1</title><g id="Layer_2" data-name="Layer 2"><g id="Layer_1-2" data-name="Layer 1"><g id="Stanbic_Pension_Logo" data-name="Stanbic Pension Logo"><g id="_3d_Logo-Copy" data-name=" 3d Logo-Copy"><path id="Shape" d="M21.85,52.4c-12.3-4.1-20-12.8-21.2-24-.6-4.7.3-15.4.8-21.3a5.75,5.75,0,0,1,4.6-5.3,80.24,80.24,0,0,1,33.8,0,6,6,0,0,1,4.6,5.3v.4c.7,8,1.4,16.7.8,21-1.8,13.2-12.1,21-21.2,23.9l-1.2.4Z" transform="translate(-0.45)" style="fill:url(#linear-gradient)"/><path id="Shape-2" data-name="Shape" d="M41.05,7.1a2.44,2.44,0,0,0-1.8-2.2,87.36,87.36,0,0,0-16.2-1.8A87.24,87.24,0,0,0,7,4.9a2.46,2.46,0,0,0-1.8,2.2c-.4,4.5-1.4,16-.9,20.6,1.1,10.4,8.6,17.3,17.6,20.7.4.2.9.3,1.4.5.1,0,3.1-.9,3.1-.9.6-.3,2.5-1.2,3.1-1.6,5.8-3.8,10.7-11.5,12.5-18.6C43.05,23.2,41.45,11.6,41.05,7.1Z" transform="translate(-0.45)" style="fill:url(#linear-gradient-2)"/><path id="Shape-3" data-name="Shape" d="M32.45,39.3A19.42,19.42,0,0,0,38,27.5l.6-.5c-.2,5.3-2.5,8.7-5.5,11.7" transform="translate(-0.45)" style="fill:url(#linear-gradient-3)"/><path id="Shape-4" data-name="Shape" d="M37.75,8.1a67,67,0,0,0-24.6-.7l-.6.5a67.65,67.65,0,0,1,10.1-.7,70.67,70.67,0,0,1,14.5,1.5Z" transform="translate(-0.45)" style="fill:url(#linear-gradient-4)"/><path id="Shape-5" data-name="Shape" d="M38.15,13l-.6.6a14.15,14.15,0,0,1-7,2.1h-.7c-4.3-.2-6.8-2.7-10.4-2.8h-.7a12.63,12.63,0,0,0-5.7,1.4l.5-.6a11.21,11.21,0,0,1,5.7-1.4H20c3.6.2,6.2,2.5,10.5,2.8h.7a14.32,14.32,0,0,0,7-2.1" transform="translate(-0.45)" style="fill:url(#linear-gradient-5)"/><path id="Shape-6" data-name="Shape" d="M38.55,27.1l-.5.6a11.1,11.1,0,0,1-6.9,2.9c-3.3,0-5.3-1.3-7.1-1.9l.5-.6c1.7.5,3.8,1.7,7.1,1.7a10.49,10.49,0,0,0,6.9-2.7" transform="translate(-0.45)" style="fill:url(#linear-gradient-6)"/><path id="Shape-7" data-name="Shape" d="M38.15,13l-.5.6c.2,2.6.4,5.4.5,7.9V24l.6-.5C38.65,23.5,38.65,17,38.15,13Z" transform="translate(-0.45)" style="fill:url(#linear-gradient-7)"/><path id="Shape-8" data-name="Shape" d="M35.65,41.4l-.5.6a27.12,27.12,0,0,1-5.7,4.4l.5-.6a27.12,27.12,0,0,0,5.7-4.4Z" transform="translate(-0.45)" style="fill:url(#linear-gradient-8)"/><polygon id="Shape-9" data-name="Shape" points="29.5 45.8 29 46.4 18.8 26.3 19.4 25.7 29.5 45.8" style="fill:url(#linear-gradient-9)"/><polygon id="Shape-10" data-name="Shape" points="21 44.1 20.3 44.6 7.1 18 7.6 17.3 21 44.1" style="fill:url(#linear-gradient-10)"/><path id="Shape-11" data-name="Shape" d="M26.85,47.4l-.5.6c-1.2.5-2.4,1-3.6,1.4l.5-.6c1.2-.5,2.4-1,3.6-1.4" transform="translate(-0.45)" style="fill:url(#linear-gradient-11)"/><path id="Shape-12" data-name="Shape" d="M23.25,48.8l-.6.6c-9.6-3.2-17.8-10.1-19-21.2-.5-4.7.5-16.3.9-20.8a2.36,2.36,0,0,1,.7-1.6l.5-.6a2.36,2.36,0,0,0-.7,1.6c-.4,4.5-1.3,16.2-.8,20.8,1.1,11.1,9.4,18,19,21.2" transform="translate(-0.45)" style="fill:url(#linear-gradient-12)"/><path id="Shape-13" data-name="Shape" d="M37.85,9.8l-.5.6c-.1-.6-.1-1.2-.2-1.7l.6-.6S37.85,9.2,37.85,9.8Z" transform="translate(-0.45)" style="fill:url(#linear-gradient-13)"/><path id="Shape-14" data-name="Shape" d="M13.65,11.6a.91.91,0,0,0-.4-.8l-4-3A.37.37,0,0,0,9,7.7a.6.6,0,0,0-.4.1l-.5.6c.1-.1.2-.1.4-.1a.37.37,0,0,1,.3.1l4,3a1.23,1.23,0,0,1,.4.8v2l.6-.6v-2Z" transform="translate(-0.45)" style="fill:url(#linear-gradient-14)"/><path id="Shape-15" data-name="Shape" d="M41.35,6.8a2.26,2.26,0,0,0-1.8-2.2,89.39,89.39,0,0,0-16.3-1.8A74,74,0,0,0,7,4.6a2.55,2.55,0,0,0-1.9,2.2c-.4,4.6-1.4,16.2-.9,20.9,1.1,10.6,8.6,17.3,17.7,20.7.4.2.9.3,1.4.5l.3-.1h0a32.35,32.35,0,0,0,3.3-1.3L10.45,15.2,8.85,14a.91.91,0,0,1-.4-.8v-5A.47.47,0,0,1,9,7.7a.37.37,0,0,1,.3.1l4,3a1.23,1.23,0,0,1,.4.8v2a11.21,11.21,0,0,1,5.7-1.4h.7c3.6.2,6.1,2.6,10.4,2.8h.7a13.2,13.2,0,0,0,7-2.1c.2,2.6.4,5.4.5,7.9v2.5c-2,1.6-5.2,3-7,3-3,0-5.1-1.9-8-1.9a6.58,6.58,0,0,0-3.8,1.2l10.2,20.1a23.05,23.05,0,0,0,3.6-2.5h0a22.86,22.86,0,0,0,8.6-15.7C42.75,23,41.75,11.3,41.35,6.8ZM21.25,44.1c-.3-.1-.6-.3-.9-.4C13.55,40.4,8.75,34.9,8,27.3a82.37,82.37,0,0,1,.1-9.8Zm9.9-32.4h-.7c-4.3-.2-6.7-2.5-10.3-2.7h-.6a8.59,8.59,0,0,0-3.2.5l-3.2-2.2a68.59,68.59,0,0,1,10.1-.7A78.29,78.29,0,0,1,37.75,8s.1,1.2.1,1.8a12.14,12.14,0,0,1-6.7,1.9Zm0,28.8-5.5-11a7.55,7.55,0,0,0-1.1-1.4c1.7.5,3.8,1.9,7.1,1.9a10.59,10.59,0,0,0,6.9-2.9v.2A19.26,19.26,0,0,1,31.15,40.5Z" transform="translate(-0.45)" style="stroke:#fff;stroke-width:0.5px;fill:url(#linear-gradient-15)"/></g></g></g></g></svg>