<svg xmlns="http://www.w3.org/2000/svg" viewBox="0 0 933.33 933.33"><title>Asset 1</title><g id="Layer_2" data-name="Layer 2"><g id="Layer_1-2" data-name="Layer 1"><polygon points="0 0 266.67 266.67 0 266.67 0 0" style="fill:#f3f4f6"/><path d="M333.33,0c0,147.28,119.39,266.67,266.67,266.67V0" style="fill:#c7cdd4"/><rect x="666.67" width="266.67" height="266.67" style="fill:#fff"/><polygon points="666.67 0 800 0 666.67 133.33 666.67 0" style="fill:#f4e1e9"/><polygon points="800 0 933.33 0 933.33 133.33 800 0" style="fill:#7a8797"/><polygon points="666.67 133.33 800 266.67 666.67 266.67 666.67 133.33" style="fill:#707e90"/><polygon points="933.33 133.33 933.33 266.67 800 266.67 933.33 133.33" style="fill:#f7f8f9"/><rect y="333.33" width="266.67" height="266.67" style="fill:#192f4b"/><polygon points="333.33 333.33 600 333.33 333.33 600 333.33 333.33" style="fill:#e2b1c7"/><polygon points="666.67 333.33 933.33 333.33 666.67 600 666.67 333.33" style="fill:#cb7399"/><polygon points="0 666.67 266.67 933.33 0 933.33 0 666.67" style="fill:#ac205d"/><polygon points="333.33 666.67 600 666.67 333.33 933.33 333.33 666.67" style="fill:#f2dbe5"/><polygon points="933.33 666.67 933.33 933.33 666.67 933.33 933.33 666.67" style="fill:#d692b0"/></g></g></svg>