<svg xmlns="http://www.w3.org/2000/svg" xmlns:xlink="http://www.w3.org/1999/xlink" viewBox="0 0 113 125"><defs><path id="b" d="M146.82 85.403c-20.018-6.638-32.626-20.85-34.568-39.036-.821-7.7.55-25.075 1.466-34.714.302-4.232 3.32-7.765 7.432-8.703A135.423 135.423 0 0 1 148.652 0a135.372 135.372 0 0 1 27.472 2.95c4.123.926 7.156 4.463 7.462 8.703l.058.634c1.203 13.002 2.302 27.243 1.356 34.242-2.931 21.432-19.71 34.124-34.45 38.851l-1.89.62-1.84-.597z"/><filter id="a" width="198.1%" height="183.7%" x="-49.1%" y="-27.9%" filterUnits="objectBoundingBox"><feOffset dy="12" in="SourceAlpha" result="shadowOffsetOuter1"/><feGaussianBlur in="shadowOffsetOuter1" result="shadowBlurOuter1" stdDeviation="10"/><feColorMatrix in="shadowBlurOuter1" values="0 0 0 0 0 0 0 0 0 0 0 0 0 0 0 0 0 0 0.15 0"/></filter></defs><g fill="none" fill-rule="nonzero" transform="translate(-92 8)"><use fill="#000" filter="url(#a)" xlink:href="#b"/><use fill="#AC145A" xlink:href="#b"/></g></svg>